<?xml version="1.0" encoding="UTF-8" standalone="no"?>
<!-- Created with Inkscape (http://www.inkscape.org/) -->

<svg
   xmlns:dc="http://purl.org/dc/elements/1.1/"
   xmlns:cc="http://creativecommons.org/ns#"
   xmlns:rdf="http://www.w3.org/1999/02/22-rdf-syntax-ns#"
   xmlns:svg="http://www.w3.org/2000/svg"
   xmlns="http://www.w3.org/2000/svg"
   xmlns:sodipodi="http://sodipodi.sourceforge.net/DTD/sodipodi-0.dtd"
   xmlns:inkscape="http://www.inkscape.org/namespaces/inkscape"
   id="svg3039"
   version="1.1"
   inkscape:version="0.48.3.1 r9886"
   width="744.09448"
   height="1052.3622"
   sodipodi:docname="New document 5">
  <metadata
     id="metadata3045">
    <rdf:RDF>
      <cc:Work
         rdf:about="">
        <dc:format>image/svg+xml</dc:format>
        <dc:type
           rdf:resource="http://purl.org/dc/dcmitype/StillImage" />
      </cc:Work>
    </rdf:RDF>
  </metadata>
  <defs
     id="defs3043" />
  <sodipodi:namedview
     pagecolor="#ffffff"
     bordercolor="#666666"
     borderopacity="1"
     objecttolerance="10"
     gridtolerance="10"
     guidetolerance="10"
     inkscape:pageopacity="0"
     inkscape:pageshadow="2"
     inkscape:window-width="640"
     inkscape:window-height="480"
     id="namedview3041"
     showgrid="true">
    <inkscape:grid
       type="xygrid"
       id="grid3247"
       empspacing="5"
       visible="true"
       enabled="true"
       snapvisiblegridlinesonly="true" />
  </sodipodi:namedview>
  <g
     inkscape:groupmode="layer"
     id="layer1"
     inkscape:label="Layer"
     style="display:inline" />
  <path
     style="fill:#ff0000;fill-opacity:1;fill-rule:nonzero;stroke:none"
     id="path4018"
     d="M 8.1237801,-0.3605963 C 21.116574,3.9152807 34.290755,9.1091216 45.306767,17.440865 c 11.971229,9.054202 20.097011,18.118522 30.772606,28.872131 16.889392,17.312253 32.973967,35.56011 46.794097,55.452614 8.91418,12.83096 11.392,18.40256 19.00726,31.66936 3.09607,5.39377 6.27579,10.73909 9.41368,16.10864 13.51659,18.30642 19.43694,25.8221 32.3468,45.64095 5.79249,8.89247 11.67039,17.75576 16.77693,27.05911 12.79042,23.30226 21.40094,48.55226 30.92467,73.26781 0.76467,10.89094 4.71863,21.1484 6.51719,31.8272 2.87909,17.09444 -0.70049,12.41677 6.4774,29.26103 1.53292,3.59728 18.61568,36.09981 19.71007,38.19382 14.24188,27.99806 27.24546,56.7011 43.6586,83.53532 35.84845,58.60941 -7.2633,-14.48892 25.40469,41.38367 3.30549,6.14783 7.00901,12.09772 9.91648,18.44348 2.43453,5.31354 4.03116,10.97238 6.07071,16.44968 21.9083,58.30394 -8.6529,-23.57716 11.07041,30.97259 11.62675,32.15668 0.25952,-1.23555 7.465,20.17301 0.0116,0.75944 0.60456,1.77619 0.0347,2.27832 -0.68905,0.60713 -1.84427,0.25172 -2.75263,0.11652 -0.47117,-0.0701 -1.15896,-1.18019 -1.23981,-0.71074 -0.17303,1.0047 0.56497,1.95918 0.85658,2.93608 2.73066,9.14808 1.43472,5.05172 5.24836,15.60822 1.92925,5.62286 2.57813,12.04961 5.42854,17.39588 1.31629,2.46884 2.29474,2.13639 2.73431,5.03838 -0.9597,1.86863 -0.41135,0.69418 0.63157,1.48665 1.56859,1.19191 0.13802,2.84574 -1.3039,1.50337 l 0,0 c -0.59473,-0.55366 -2.42391,-2.18287 -1.31285,-2.85084 0.2054,-1.67197 -1.89533,-3.12031 -2.59686,-4.43853 -2.85706,-5.36861 -3.54227,-11.80216 -5.45264,-17.4592 -0.50787,-1.40792 -5.35485,-14.07255 -5.33828,-16.61836 0.0109,-1.67173 2.16446,-6.30322 3.34909,-3.60906 0.21499,0.48895 0.27738,1.71098 -0.24145,1.58408 -0.52704,-0.1289 0.0461,-1.08416 0.0691,-1.62623 -7.06786,-21.01915 4.08483,11.76961 -7.46432,-20.17096 -19.73414,-54.57719 10.95899,27.65716 -11.05228,-30.92122 -2.00426,-5.39144 -3.5608,-10.96584 -5.95614,-16.19529 -2.89693,-6.3245 -6.58778,-12.25428 -9.88168,-18.38143 -32.60753,-55.77854 10.564,17.43667 -25.40802,-41.3894 -16.42548,-26.86106 -29.44981,-55.58585 -43.70099,-83.61223 -1.34392,-2.57151 -18.18014,-34.58323 -19.83828,-38.4984 -7.31265,-17.26644 -3.62987,-12.25245 -6.52594,-29.43669 -1.78387,-10.58487 -5.68882,-20.75582 -6.43368,-31.55317 -9.47761,-24.59591 -18.03323,-49.74428 -30.7591,-72.93477 -13.93799,-25.39933 -32.08945,-49.37313 -49.15053,-72.74459 -3.1432,-5.37879 -6.32851,-10.7332 -9.4296,-16.13638 C 132.5975,121.25808 130.11161,115.67411 121.28076,102.95875 107.51628,83.139556 91.492293,64.961078 74.666895,47.714854 64.189606,37.155362 55.997568,28.035322 44.245472,19.124299 33.448018,10.937133 20.526801,5.8448161 7.7966179,1.6023767 5.9276235,0.97951878 6.2524626,-0.97643946 8.1237801,-0.3605963 z"
     inkscape:connector-curvature="0" />
</svg>
