<?xml version="1.0" encoding="UTF-8" standalone="no"?>
<!-- Created with Inkscape (http://www.inkscape.org/) -->

<svg
   xmlns:dc="http://purl.org/dc/elements/1.1/"
   xmlns:cc="http://creativecommons.org/ns#"
   xmlns:rdf="http://www.w3.org/1999/02/22-rdf-syntax-ns#"
   xmlns:svg="http://www.w3.org/2000/svg"
   xmlns="http://www.w3.org/2000/svg"
   xmlns:sodipodi="http://sodipodi.sourceforge.net/DTD/sodipodi-0.dtd"
   xmlns:inkscape="http://www.inkscape.org/namespaces/inkscape"
   width="1300"
   height="241"
   id="svg3792"
   version="1.1"
   inkscape:version="0.48.3.1 r9886"
   sodipodi:docname="city-bottom.svg">
  <defs
     id="defs3794" />
  <sodipodi:namedview
     id="base"
     pagecolor="#ffffff"
     bordercolor="#666666"
     borderopacity="1.0"
     inkscape:pageopacity="0.0"
     inkscape:pageshadow="2"
     inkscape:zoom="0.84852814"
     inkscape:cx="674.19526"
     inkscape:cy="220.18327"
     inkscape:document-units="px"
     inkscape:current-layer="layer1"
     showgrid="false"
     showguides="true"
     inkscape:guide-bbox="true"
     inkscape:window-width="1366"
     inkscape:window-height="744"
     inkscape:window-x="0"
     inkscape:window-y="24"
     inkscape:window-maximized="1">
    <sodipodi:guide
       orientation="0,1"
       position="-1032.3759,784.88853"
       id="guide3800" />
  </sodipodi:namedview>
  <metadata
     id="metadata3797">
    <rdf:RDF>
      <cc:Work
         rdf:about="">
        <dc:format>image/svg+xml</dc:format>
        <dc:type
           rdf:resource="http://purl.org/dc/dcmitype/StillImage" />
        <dc:title />
      </cc:Work>
    </rdf:RDF>
  </metadata>
  <g
     id="layer1"
     inkscape:label="Layer 1"
     inkscape:groupmode="layer"
     transform="translate(0,181)">
    <path
       style="fill:#510f6d;fill-opacity:1;stroke:none;stroke-width:0.87221956000000000px;stroke-linecap:butt;stroke-linejoin:miter;stroke-opacity:1"
       d="m 0.83333333,-180.65823 c 9.70464267,6.83162 15.98760367,23.13461 28.26654067,27.81118 8.527162,3.24766 23.657231,-0.85838 30.622088,1.79427 6.132057,2.33545 12.617672,3.90844 18.844361,6.27994 1.570364,0.59809 4.3185,-0.5981 5.888862,0 12.202759,4.64754 25.096645,7.26935 38.866505,10.76561 6.00662,1.52513 14.01548,-1.52513 20.02212,0 7.90877,2.0081 14.25597,5.42955 21.19991,8.07423 3.20139,1.21926 5.04301,4.16352 8.24441,5.3828 7.14528,2.72135 15.31278,4.12708 23.55545,5.38281 3.2723,0.49851 7.4487,-0.80013 10.59995,0 11.60132,2.94566 25.00983,2.46259 36.51096,5.38281 10.98076,2.78809 25.43396,-1.91539 36.51094,0.89713 4.04779,1.02776 8.82006,0.74426 12.9555,1.79426 6.79641,1.72566 13.74677,4.78705 20.02213,7.17708 1.66561,0.63437 5.13647,0.40705 7.06664,0.89714 17.61727,4.473153 20.64575,6.279943 40.04427,6.279943 12.11879,0 41.35205,-3.555523 51.82199,-0.897134 5.21248,1.323491 10.95152,4.328342 16.48881,5.38281 4.87659,0.928649 8.53742,1.008725 12.95551,2.691402 7.54919,2.875196 14.36148,8.730251 22.37768,10.76562 1.11733,0.283701 2.47988,-0.401214 3.53332,0 10.38972,3.957038 18.82386,11.206381 29.4443,15.251289 7.17597,2.73305 39.91644,20.439336 43.5776,26.01691 3.08994,4.707359 4.0967,10.726775 7.06662,15.25129 1.72821,2.632815 5.30591,4.494713 7.06664,7.177077 0.47112,0.717709 -0.47111,1.973702 0,2.69141 1.85745,2.829696 4.06894,5.301669 5.88887,8.0742113 2.45394,3.7384469 9.20834,6.1170606 12.9555,8.9713454 1.58894,1.2103248 5.631,7.1770773 8.2444,7.1770773 0.94608,0 2.64516,-2.353142 3.53332,-2.691401 0.94222,-0.358858 2.5911,0.358851 3.53332,0 3.75658,-1.430735 5.16388,-3.9334394 8.2444,-6.2799439 4.28433,-3.2634686 16.16787,-5.7910046 16.48882,-6.2799441 3.75272,-5.717057 3.26528,-13.048683 7.06663,-18.839832 0.60162,-0.916523 10.93091,-10.443097 11.77774,-10.765613 7.07235,-2.693586 14.06588,-6.254283 21.1999,-8.971353 6.02621,-2.295144 9.28484,-8.47047 15.31104,-10.765613 10.11946,-3.85411 14.65897,3.492276 18.84437,9.868479 2.56317,3.904847 18.5342,14.920857 24.73322,12.559888 14.33377,-5.45917 22.28875,-18.805956 36.51095,-24.222642 9.59719,-3.65519 22.29222,-1.761716 31.79986,-5.382802 1.88444,-0.717709 5.1822,0.717708 7.06663,0 9.2892,-3.53789 19.15348,-11.520684 28.26654,-16.148432 4.10431,-2.084225 5.02112,-6.398013 9.42219,-8.074211 5.25485,-2.001365 11.23777,-3.382893 16.48882,-5.38281 5.00411,-1.905874 13.49031,1.359429 18.84435,0 4.10621,-1.042593 7.95077,-1.719712 11.77773,-2.691402 6.71331,-1.704555 15.66437,1.704555 22.37768,0 2.91412,-0.739921 6.35804,-2.691401 9.42218,-2.691401 8.06704,0 15.81407,-3.908615 23.55545,-5.382808 7.38822,-1.40695 15.96051,-1.7272 23.55546,-2.69141 16.06929,-2.04005 33.35143,1.14872 49.46639,-0.89714 20.296,-2.57664 41.4888,-4.31218 61.2442,-8.0742 5.4574,-1.03927 13.7923,0.64218 18.8444,-0.89714 1.8149,-0.55302 2.6403,-1.84849 7.0665,-2.69141 8.7231,-1.66111 22.711,0.32164 30.6222,-2.6914 3.8843,-1.47938 14.3027,-4.74387 16.4888,-8.07421 1.8805,-2.86484 2.8812,-6.48014 7.0666,-8.07422 10.9378,-4.16578 32.5565,0.0641 44.7554,-1.79427 3.8596,-0.58798 6.9142,-1.98953 10.5999,-2.6914 2.9473,-0.56125 6.442,0.45403 9.4223,0 12.0371,-1.83379 23.4979,-3.11808 34.1553,-7.17708 2.0006,-0.76192 2.7736,0.5787 4.7111,-0.89713 12.0074,-9.14621 18.9098,-1.81921 28.2665,-5.38281 9.4683,-3.6061 15.5558,-8.44704 20.0222,-15.25129 1.3552,-2.0645 4.5208,-3.29873 5.8889,-5.38281 0.6281,-0.95695 -0.6283,-2.6316 0,-3.58853 2.1251,-3.23761 4.9631,-4.2936 0,-8.07422"
       id="path4437"
       inkscape:connector-curvature="0" />
  </g>
</svg>
